{"title":"Dylan Dog Dead Of Night [2011].720p.[Dual Audio].[Hindi+English]","uid":7505347,"size":1071122387,"categoryP":"video","categoryS":"hd___movies","magnet":"?xt=urn:btih:0542fd43596a31a6da1feccfc1ab53eab77b474b&amp;dn=Dylan+Dog+Dead+Of+Night+%5B2011%5D.720p.%5BDual+Audio%5D.%5BHindi%2BEnglish%5D&amp;tr=udp%3A%2F%2Ftracker.openbittorrent.com%3A80&amp;tr=udp%3A%2F%2Fopen.demonii.com%3A1337&amp;tr=udp%3A%2F%2Ftracker.coppersurfer.tk%3A6969&amp;tr=udp%3A%2F%2Fexodus.desync.com%3A6969","seeders":0,"leechers":1,"uploader":"TeamExD","files":4,"time":1344152010,"description":"Format                                   : Matroska\nFormat version                           : Version 2\nFile size                                : 1 008 MiB\nDuration                                 : 1h 47mn\nOverall bit rate                         : 1 307 Kbps\nMovie name                               : Dylan Dog Dead Of Night [2011].720p.BRRip.x264.[Dual Audio].6Ch. [Hindi+English].by K@rtik [ExD Exclusive]\nBit rate                                 : 874 Kbps\nWidth                                    : 1 280 pixels\nHeight                                   : 544 pixels\nDisplay aspect ratio                     : 2.35:1\nFrame rate                               : 23.976 fps\nCodec ID                                 : A_AC3\nDuration                                 : 1h 47mn\nBit rate mode                            : Constant\nBit rate                                 : 224 Kbps\nChannel(s)                               : 2 channels\nChannel positions                        : Front: L R\nSampling rate                            : 48.0 KHz\nBit depth                                : 16 bits\nStream size                              : 173 MiB (17%)\nTitle                                    : K@rtik\nLanguage                                 : Hindi\nCodec ID                                 : A_AC3\nDuration                                 : 1h 47mn\nBit rate mode                            : Constant\nBit rate                                 : 224 Kbps\nChannel(s)                               : 6 channels\nChannel positions                        : Front: L C R, Side: L R, LFE\nSampling rate                            : 48.0 KHz\nBit depth                                : 16 bits\nStream size                              : 173 MiB (17%)\nTitle                                    : K@rtik &lt;a href=&quot;\nhttp://img210.imageshack.us/img210/5512/exdp.jpg&quot; rel=&quot;nofollow&quot; target=&quot;_NEW&quot;&gt;\nhttp://img210.imageshack.us/img210/5512/exdp.jpg&lt;/a&gt; &lt;a href=&quot;\nhttp://img337.imageshack.us/img337/2572/32932576.png&quot; rel=&quot;nofollow&quot; target=&quot;_NEW&quot;&gt;\nhttp://img337.imageshack.us/img337/2572/32932576.png&lt;/a&gt; &lt;a href=&quot;\nhttp://img845.imageshack.us/img845/4131/24357048.png&quot; rel=&quot;nofollow&quot; target=&quot;_NEW&quot;&gt;\nhttp://img845.imageshack.us/img845/4131/24357048.png&lt;/a&gt; &lt;a href=&quot;\nhttp://img401.imageshack.us/img401/5034/44237300.png&quot; rel=&quot;nofollow&quot; target=&quot;_NEW&quot;&gt;\nhttp://img401.imageshack.us/img401/5034/44237300.png&lt;/a&gt; &lt;a href=&quot;\nhttp://img193.imageshack.us/img193/6868/64457743.png&quot; rel=&quot;nofollow&quot; target=&quot;_NEW&quot;&gt;\nhttp://img193.imageshack.us/img193/6868/64457743.png&lt;/a&gt; &lt;a href=&quot;\nhttp://img210.imageshack.us/img210/1940/11701373.png&quot; rel=&quot;nofollow&quot; target=&quot;_NEW&quot;&gt;\nhttp://img210.imageshack.us/img210/1940/11701373.png&lt;/a&gt; &lt;a href=&quot;\nhttp://img266.imageshack.us/img266/7065/10399318.png&quot; rel=&quot;nofollow&quot; target=&quot;_NEW&quot;&gt;\nhttp://img266.imageshack.us/img266/7065/10399318.png&lt;/a&gt; &lt;a href=&quot;\nhttp://img846.imageshack.us/img846/8255/35409153u.png&quot; rel=&quot;nofollow&quot; target=&quot;_NEW&quot;&gt;\nhttp://img846.imageshack.us/img846/8255/35409153u.png&lt;/a&gt; &lt;a href=&quot;\nhttp://img854.imageshack.us/img854/680/33103377.png&quot; rel=&quot;nofollow&quot; target=&quot;_NEW&quot;&gt;\nhttp://img854.imageshack.us/img854/680/33103377.png&lt;/a&gt; &lt;a href=&quot;\nhttp://img17.imageshack.us/img17/5449/26885655.png&quot; rel=&quot;nofollow&quot; target=&quot;_NEW&quot;&gt;\nhttp://img17.imageshack.us/img17/5449/26885655.png&lt;/a&gt; &lt;a href=&quot;\nhttp://img33.imageshack.us/img33/6486/96279618.png&quot; rel=&quot;nofollow&quot; target=&quot;_NEW&quot;&gt;\nhttp://img33.imageshack.us/img33/6486/96279618.png&lt;/a&gt; &lt;a href=&quot;\nhttp://img826.imageshack.us/img826/982/66693756.png&quot; rel=&quot;nofollow&quot; target=&quot;_NEW&quot;&gt;\nhttp://img826.imageshack.us/img826/982/66693756.png&lt;/a&gt;\n","torrent":{"xt":"urn:btih:0542fd43596a31a6da1feccfc1ab53eab77b474b","amp;dn":"Dylan+Dog+Dead+Of+Night+%5B2011%5D.720p.%5BDual+Audio%5D.%5BHindi%2BEnglish%5D","amp;tr":["udp%3A%2F%2Ftracker.openbittorrent.com%3A80","udp%3A%2F%2Fopen.demonii.com%3A1337","udp%3A%2F%2Ftracker.coppersurfer.tk%3A6969","udp%3A%2F%2Fexodus.desync.com%3A6969"],"infoHash":"0542fd43596a31a6da1feccfc1ab53eab77b474b","infoHashBuffer":{"type":"Buffer","data":[5,66,253,67,89,106,49,166,218,31,236,207,193,171,83,234,183,123,71,75]},"announce":[],"urlList":[]}}